<svg xmlns="http://www.w3.org/2000/svg" xmlns:xlink="http://www.w3.org/1999/xlink" viewBox="0 0 135 136"><defs><style>.cls-1{fill:none;}.cls-2{isolation:isolate;}.cls-3{clip-path:url(#clip-path);}.cls-4{fill:#191114;opacity:0.5;}.cls-5{fill:#f02;}.cls-6{fill:#e6e6e6;mix-blend-mode:multiply;}.cls-7{fill:#efc660;}.cls-8{fill:#786330;}.cls-9{fill:#f6f3e5;}</style><clipPath id="clip-path"><rect class="cls-1" x="4.68" y="6.36" width="122.5" height="122.5" rx="61.25" ry="61.25"/></clipPath></defs><title>Asset 1</title><g class="cls-2"><g id="Layer_2" data-name="Layer 2"><g id="avatars"><g class="cls-3"><rect class="cls-4" x="3" y="4" width="132" height="132" rx="10" ry="10"/><rect class="cls-5" width="132" height="132" rx="10" ry="10"/><path class="cls-6" d="M130.83,70.29a17.38,17.38,0,0,0-1.48-1.5,17.38,17.38,0,0,0-1.48-1.5,17.38,17.38,0,0,0-1.48-1.5,17.38,17.38,0,0,0-1.48-1.5,20.74,20.74,0,0,0-1.48-1.49,17.53,17.53,0,0,0-1.49-1.5,17.22,17.22,0,0,0-1.47-1.5A19,19,0,0,0,119,58.3a17.53,17.53,0,0,0-1.49-1.5A18.68,18.68,0,0,0,116,55.31a17.53,17.53,0,0,0-1.49-1.5,16,16,0,0,0-1.48-1.5,16,16,0,0,0-1.48-1.5,17.3,17.3,0,0,0-1.48-1.49,17.38,17.38,0,0,0-1.48-1.5,17.38,17.38,0,0,0-1.48-1.5,17.38,17.38,0,0,0-1.48-1.5,17.31,17.31,0,0,0-1.48-1.49,19,19,0,0,0-1.48-1.5,19,19,0,0,0-1.48-1.5,19,19,0,0,0-1.48-1.5,19,19,0,0,0-1.48-1.5,17.45,17.45,0,0,0-1.49-1.49,16,16,0,0,0-1.48-1.5,16,16,0,0,0-1.48-1.5,17.38,17.38,0,0,0-1.48-1.5,16,16,0,0,0-1.48-1.49,17.38,17.38,0,0,0-1.48-1.5,17.38,17.38,0,0,0-1.48-1.5,19,19,0,0,0-1.48-1.5,17.38,17.38,0,0,0-1.48-1.5C81,19.38,73,15.57,66.58,15.05c-9.15-.74-20.07,7.38-20.26,11.46a13.32,13.32,0,0,0-4,12.08c-2.42,1.56-2.67,4.75-2.67,8a9,9,0,0,0,3.49,6.66,10.51,10.51,0,0,0,1.48,1.5c.16.19.32.39.49.57a1.48,1.48,0,0,0,0,.21c.08,2.54,1.8,11.33,6.3,15A11.06,11.06,0,0,0,52.93,72a21.47,21.47,0,0,1-3,7.31A12.66,12.66,0,0,1,48.51,81l0-.08-.36.06a10.86,10.86,0,0,0-2.29,1.11,14.79,14.79,0,0,1-1.89,1l-.27,0-.16.61-.23,0-.46.1V84C23.23,86.5,14,97,14,113v2h2v1h2v2h1v1h2v2h1v2h1v1h2v1h1v2h1v1h2v2h1v1h2v1h90a10,10,0,0,0,10-10V71.45A16,16,0,0,0,130.83,70.29Z"/><path class="cls-7" d="M93,99.08,89.3,85.76l-.13-.5-.27-1-.1,0-.43-.19-1.32-.7c-.54-.3-1.23-.67-1.67-.87l-.09.25-.18.48-.3.83L83.15,88.5l-.27.72-.26.72L73.3,115h10l3.34-5.43-7.15-6.21Z"/><path class="cls-7" d="M50.87,89.81l-.28-.7-.27-.71-1.71-4.35-.38-1-.18-.47L48,82.49c-.43.19-1.12.57-1.66.87a20.15,20.15,0,0,1-1.86.94h0l0,.16-.24.87-.14.48L40.39,99.08l13.54,4.28-7.16,6.21L50.11,115H61v-.6l-.42.17Z"/><path class="cls-8" d="M90.71,84.16l.23-.21-1.17,0-.6,0-.08-.3-.27-.06A14.07,14.07,0,0,1,87,82.57a11,11,0,0,0-2.28-1.09l-.37-.06,0,.12c-.26-.29-.51-.6-.78-1A35,35,0,0,1,78.4,70.26a30.19,30.19,0,0,0,8-15.14c2.41-1.4,4.93-4.31,4.93-7.55,0-3.66-.32-7.33-4-8.46C86.19,30,82.65,19.72,65.62,19.72S45.07,29.94,44,39c-4.07,1-4.42,4.77-4.42,8.58,0,3.42,2.71,6.5,5.34,7.78a30,30,0,0,0,8.32,15.08,23.46,23.46,0,0,1-3.5,9.43,13.22,13.22,0,0,1-1.37,1.64l0-.08-.37.06a11,11,0,0,0-2.27,1.09,14,14,0,0,1-1.88.93l-.27.06-.16.6-.22,0-.47.09v.19C23.19,86.92,14,97.28,14,113v2H50.07l-3.36-5.43,7.19-6.21L40.31,99.08,44,85.82l.13-.48.24-.87,0-.16h0a20.15,20.15,0,0,0,1.86-.94c.54-.3,1.23-.68,1.67-.87l.06.13.18.47.38,1,1.71,4.35.28.71.28.7,9.75,24.76.42-.17v.6H72.79l9.3-25.06.27-.72.27-.72,1.65-4.45.3-.83.18-.48.1-.25c.44.2,1.12.57,1.66.87l1.32.7.43.19.1,0,.26,1,.14.5,3.68,13.32-13.52,4.28,7.14,6.21L82.74,115H117v-2C117,97.14,111.75,85.42,90.71,84.16Z"/><path class="cls-9" d="M67,95.25v.49h0l-.07-.49c-3.2,0-9.94-3.17-15.31-6l-2-5L49,82.62a13.38,13.38,0,0,0,1.79-2.06,23.83,23.83,0,0,0,3.54-9.17c4.32,4.14,9,6.61,11.57,6.61h0c3,0,7.76-2.56,12-6.8a35.36,35.36,0,0,0,5.08,10.13,15.33,15.33,0,0,0,1.17,1.38l-.55,1.48-1.91,5.15C76.64,92.25,70.38,95.25,67,95.25Z"/><path class="cls-9" d="M46.16,54.91l-.25-.11c-2.07-.91-5-3.68-5-7,0-3.65.3-7,4-7.68l.35-.07,0-.36C46.36,30.44,49.66,21,66,21S85.7,30.49,86.76,39.81l0,.34.34.08c3.33.85,3.61,4.07,3.61,7.6,0,3.12-2.77,5.77-4.63,6.79l-.21.12,0,.23a29.14,29.14,0,0,1-7.36,14.5l-.39.42-.38.4C73.61,74.54,68.91,77.1,66,77.12l0,.49v-.49c-2.48,0-7.15-2.52-11.37-6.72L54.21,70c-.14-.14-.29-.29-.43-.45A28.68,28.68,0,0,1,46.2,55.17Z"/><path class="cls-8" d="M45.8,54.07s-.38-7.3,1-9.68A15.22,15.22,0,0,1,49,41.11s-.76-8.4,3.42-10,4,2.19,12.53,2.74,11.39-4.21,14.24-2.38,3.42,6.21,2.28,8.4c4,2.19,4.75,10.4,3.8,15.15,2.27-5.29,6.07-18.44,2.09-23.73,1-6.39-11.46-13.73-20.57-14.46s-20,7.27-20.19,11.29c-4.94,4.56-4.93,11.14-2.73,16.13A22,22,0,0,0,45.8,54.07Z"/><path class="cls-8" d="M86.34,56.63c-.09,2.82-2.22,13.41-8,15.94s-9,6.11-12.45,6.09-6.51-3.57-12.33-6.09-8-13.12-8-15.94,0-7.31,0-7.31l.34-1.75S46.94,55.05,50,57.64a46.1,46.1,0,0,1,5.4,5.46s.57-1.35.76-1.89,7.23-2.11,9.72-2.11,9.54,1.57,9.72,2.11.76,1.89.76,1.89a46.1,46.1,0,0,1,5.4-5.46c3.08-2.59,4-8.54,4-8.54l.55.22S86.43,53.82,86.34,56.63ZM68,65H63.72c-1-.46-2-1-2-1,.13,1.25,2,1.87,2,2H68c0-.09,1.88-.71,2-2C70,64,69,64.54,68,65Z"/></g></g></g></g></svg>