<svg xmlns="http://www.w3.org/2000/svg" xmlns:xlink="http://www.w3.org/1999/xlink" viewBox="0 0 132 132"><defs><style>.cls-1{fill:none;}.cls-2{isolation:isolate;}.cls-3{clip-path:url(#clip-path);}.cls-4{fill:#85cfb4;}.cls-5{fill:#e6e6e6;mix-blend-mode:multiply;}.cls-6{fill:#f6f3e5;}.cls-7{fill:#43685a;}</style><clipPath id="clip-path"><rect class="cls-1" x="4.51" y="7.63" width="122.5" height="122.5" rx="61.25" ry="61.25"/></clipPath></defs><title>Asset 2</title><g class="cls-2"><g id="Layer_2" data-name="Layer 2"><g id="avatars"><g class="cls-3"><rect class="cls-4" width="132" height="132" rx="66" ry="66"/><path class="cls-5" d="M128.43,65.26l-.74-.74c-.24-.25-.48-.49-.73-.73l-.75-.75c-.24-.25-.48-.5-.73-.73l-.74-.74c-.24-.25-.48-.49-.73-.73s-.49-.51-.75-.75l-.72-.72c-.25-.26-.5-.51-.76-.76s-.47-.49-.72-.72l-.75-.75-.73-.73c-.24-.25-.49-.5-.74-.74s-.48-.5-.74-.73-.49-.51-.74-.75-.49-.5-.74-.74l-.73-.73c-.24-.25-.49-.5-.74-.74s-.48-.5-.74-.74-.48-.49-.73-.73-.49-.5-.74-.74-.49-.5-.74-.74l-.74-.74c-.24-.25-.48-.5-.74-.73s-.48-.5-.73-.74-.49-.5-.74-.74-.49-.5-.74-.74l-.73-.73q-.36-.39-.75-.75c-.24-.25-.48-.49-.73-.72s-.49-.51-.75-.76-.48-.49-.73-.73-.48-.49-.73-.73-.49-.5-.74-.74-.49-.5-.74-.74-.49-.5-.75-.74-.47-.49-.72-.73-.49-.5-.74-.74-.49-.5-.75-.75-.48-.49-.73-.72-.48-.51-.74-.75-.48-.5-.74-.74-.48-.49-.73-.73-.49-.5-.74-.74-.48-.5-.73-.73-.5-.51-.75-.75-.48-.49-.73-.73L93,29.85c-.24-.26-.49-.5-.74-.74s-.48-.5-.73-.73-.49-.5-.75-.75-.48-.49-.72-.72-.5-.51-.76-.76-.48-.49-.72-.72-.49-.5-.74-.74-.49-.5-.75-.75-.48-.49-.73-.73-.49-.5-.74-.74-.48-.5-.74-.73C81.56,18.21,77,15.92,71,17.49c-1.49-1.49-5.31-4.15-12.49-2.41C48.81,17.43,42,23.62,38.82,35.25S35.45,51.36,28.28,48.16a9.12,9.12,0,0,0,2.3,3.25,7.38,7.38,0,0,0,.74.74,7.19,7.19,0,0,0,.73.73,7.38,7.38,0,0,0,.74.74,7.38,7.38,0,0,0,.74.74,6.21,6.21,0,0,0,.57.58,4.66,4.66,0,0,1-4.3,1,4.67,4.67,0,0,0,1.28,1.57,5.59,5.59,0,0,0,.73.74,5.72,5.72,0,0,0,.74.74,5.13,5.13,0,0,0,.74.73,4.69,4.69,0,0,0,.74.74,5.15,5.15,0,0,0,.74.74,4.71,4.71,0,0,0,.63.65,9.06,9.06,0,0,1-3.53,1,3.92,3.92,0,0,0,.91,1,4.61,4.61,0,0,0,.74.74,4.21,4.21,0,0,0,.74.74,4.58,4.58,0,0,0,.74.74,4.47,4.47,0,0,0,.73.73,4.61,4.61,0,0,0,.74.74,4.62,4.62,0,0,0,.51.54,3.18,3.18,0,0,1-1.64.45,6.71,6.71,0,0,0,1.32.69,3.68,3.68,0,0,1-.58,0A7.09,7.09,0,0,0,37.4,70a2.78,2.78,0,0,1-.58.06,7.09,7.09,0,0,0,1.32.68,3.68,3.68,0,0,1-.59.06,7.09,7.09,0,0,0,1.32.68,3.48,3.48,0,0,1-.58,0,6.71,6.71,0,0,0,1.32.69,3.68,3.68,0,0,1-.58,0,6.42,6.42,0,0,0,1.32.68,2.78,2.78,0,0,1-.58.06,7.09,7.09,0,0,0,1.32.68,3.68,3.68,0,0,1-.59.06,7.09,7.09,0,0,0,1.32.68,3.48,3.48,0,0,1-.58,0,6.71,6.71,0,0,0,1.32.69,3.58,3.58,0,0,1-.58.05,6.42,6.42,0,0,0,1.32.68,2.78,2.78,0,0,1-.58.06A7.09,7.09,0,0,0,44,76.6a2.81,2.81,0,0,1-.59.06,7.09,7.09,0,0,0,1.32.68,3.48,3.48,0,0,1-.58,0,6.71,6.71,0,0,0,1.32.69,3.58,3.58,0,0,1-.58,0,6.71,6.71,0,0,0,1.32.69,3.68,3.68,0,0,1-.58.05,7.09,7.09,0,0,0,1.32.68,2.78,2.78,0,0,1-.58.06,7.17,7.17,0,0,0,1.31.68,3.44,3.44,0,0,1-.58.06,7.09,7.09,0,0,0,1.32.68,3.48,3.48,0,0,1-.58,0,6.71,6.71,0,0,0,1.32.69,3.68,3.68,0,0,1-.58,0,7.09,7.09,0,0,0,1.32.68,2.78,2.78,0,0,1-.58.06,7.17,7.17,0,0,0,1.31.68,3.44,3.44,0,0,1-.58.06,7.09,7.09,0,0,0,1.32.68,3.48,3.48,0,0,1-.58,0,6.71,6.71,0,0,0,1.32.69,3.58,3.58,0,0,1-.58,0,4.83,4.83,0,0,0,.65.38,10.69,10.69,0,0,1-7.53,4.34l-.46,0c-.42,0-.89.06-1.37.09l-.93,0v.13c-15.66-.23-23.06,14-23.21,27.2h.76c0,.74,0,1,0,1h.76l0,1H21l0,1h.76l0,1h1.5l0,1h.75l0,1h.76l0,1h1.5l0,1H27.6l0,1h.76l0,1h.76l0,1h1.49l0,1h.76l0,1H32l0,1H33.5s0,.84,0,1H122a10,10,0,0,0,10-10v-7a8.76,8.76,0,0,1-.51-1.11c.17.08.34.14.51.21V69.32A22.46,22.46,0,0,0,129.17,66C128.93,65.74,128.68,65.5,128.43,65.26ZM21.49,106.47a2.17,2.17,0,0,1,.45-1.19C21.78,105.67,21.63,106.07,21.49,106.47Zm.74.74a2.21,2.21,0,0,1,.44-1.19C22.52,106.41,22.37,106.81,22.23,107.21Zm.74.73a2.13,2.13,0,0,1,.44-1.18C23.25,107.15,23.11,107.54,23,107.94Zm.73.74a2.2,2.2,0,0,1,.45-1.19C24,107.89,23.84,108.28,23.7,108.68Zm1.06-.13-.11.06a2.45,2.45,0,0,1,.24-.38C24.84,108.34,24.8,108.44,24.76,108.55ZM40.32,92.21a2.19,2.19,0,0,1-.63-.11,1.42,1.42,0,0,1-.07-.22,21.47,21.47,0,0,1,2.17-.25A2.2,2.2,0,0,1,40.32,92.21Zm1.77-.92a24.54,24.54,0,0,0-3.05.33,1.92,1.92,0,0,1-.15-.48,23.94,23.94,0,0,1,3.47-.31A1.92,1.92,0,0,1,42.09,91.29Zm.44-1.18a1.64,1.64,0,0,1,0,.22s0,0-.07-.33h.07a2.42,2.42,0,0,1,0,.5s0,0,0,0a23.1,23.1,0,0,0-4.15.34,2.44,2.44,0,0,1-.15-.48A4.75,4.75,0,0,1,42,91h.22c.12-.92.23-.92.35-.92Zm2.52.15-.14,0a11.44,11.44,0,0,0,7.8-4.48l.25.13a10.65,10.65,0,0,1-7.53,4.33Zm2.36.34a11.12,11.12,0,0,0,6-4.1l.24.13a10.31,10.31,0,0,1-6,4Zm1.93.34a11,11,0,0,0,4.85-3.7l.24.13A10.16,10.16,0,0,1,49.66,91Zm1,.8-.31-.06c.21-.08.41-.18.61-.27l.33.07Zm.6-.46A11,11,0,0,0,54.93,88l.24.13a10.16,10.16,0,0,1-3.85,3.25Zm.42.93h-.09l.11,0,.15,0C51.52,92.18,51.47,92.21,51.41,92.21Zm.66-.12L51.73,92l.51-.29.36.08Zm.41-.49a10.81,10.81,0,0,0,3.18-2.89l.25.13a10.16,10.16,0,0,1-3.08,2.84Zm1.38.32a10.82,10.82,0,0,0,2.54-2.47l.24.13A10.15,10.15,0,0,1,54.21,92Zm1.31.31a11.55,11.55,0,0,0,2-2l.24.12a10.24,10.24,0,0,1-1.88,2Zm1.24.31a10.86,10.86,0,0,0,1.47-1.62l.24.13a11,11,0,0,1-1.38,1.57Zm1.2.3a10.38,10.38,0,0,0,1-1.18l.24.13a9.32,9.32,0,0,1-.93,1.13Zm1.44.38-.3-.08c.21-.24.41-.48.6-.74l.24.13Q59.34,92.89,59.05,93.22Zm1.1.3-.29-.08.23-.3.24.13Z"/><path class="cls-6" d="M52.39,69.49A43.52,43.52,0,0,1,46.62,58l-.22.11a29.27,29.27,0,0,1,1.34-17.43,10.85,10.85,0,0,0-.24,4.4,22.41,22.41,0,0,1,4.13-9.5,29.15,29.15,0,0,0-1.41,6.94s1.52-5.56,4.56-8.12a44.88,44.88,0,0,0-1.41,7.26s4.14-8.27,8.31-12.15c.3-.27.6-.53.9-.76,0,0-.09.25-.22.65-.69,2.07-3,8.62-4.44,10.24,0,0,5.34-5.76,7.34-10.49,0-.13.12-.27.17-.4s0,.15-.06.4c-.31,2-1.83,11.1-4.73,15.18a44.76,44.76,0,0,0,9.13-14.8c0-.13.1-.25.14-.38.06.13.15.28.25.45A14.69,14.69,0,0,0,74,33.5c4.56,3.53,8.51,7.19,8.83,13a28.36,28.36,0,0,0,.55-3.64,36.12,36.12,0,0,1,.88,5.25l.07.71.59-.4.22-.13A25.72,25.72,0,0,1,83.7,58.91l-.13-.07-.15.47C80.21,69.45,70.64,79,65.57,79h-.21C62.15,78.81,56.72,75,52.39,69.49Z"/><path class="cls-6" d="M55.37,79.49l.4.21a22.38,22.38,0,0,0,.5-3c.06-.59.1-1.18.12-1.76,3.31,2.94,6.64,4.79,8.92,4.92h.26c2.66,0,6.41-2.33,9.94-6,.07.58.13,1.16.22,1.73.79,5,2.44,9.42,4.63,12.3,1,1.29,3.66,2.06,8.39,2.4-9.69,1.06-21.16,5.36-21.16,5.36S53.31,91.2,44.91,90.24C50.52,89.41,54.09,85.71,55.37,79.49Z"/><path class="cls-4" d="M19.91,113.5c.07-.72.18-1.44.3-2.15a2.16,2.16,0,0,1-.3,2.15Z"/><path class="cls-4" d="M21.54,117a2.21,2.21,0,0,1,4.31,0Z"/><path class="cls-4" d="M23.69,108.84a2.22,2.22,0,0,1,0-4.44,2.3,2.3,0,0,1,.45,0,2.07,2.07,0,0,1,.33.1l.09,0a2,2,0,0,1,.32.17l.05,0,.21.17.12.1.1.12.17.21,0,.05a2.58,2.58,0,0,1,.18.32s0,.06,0,.09.08.22.11.33a2.28,2.28,0,0,1,0,.45A2.22,2.22,0,0,1,23.69,108.84Z"/><path class="cls-4" d="M42,90h.22a.56.56,0,0,0,.35.08v0a1.64,1.64,0,0,1,0,.22s0,0-.07.67h.07c0-.61,0-.56,0-.5a2.21,2.21,0,0,1-4.32-.1A37.1,37.1,0,0,1,42,90Z"/><path class="cls-4" d="M29.24,114.38a2.15,2.15,0,0,1-.45,0,2.22,2.22,0,0,1,0-4.35,2.15,2.15,0,0,1,.45,0,2.22,2.22,0,0,1,0,4.43Z"/><path class="cls-4" d="M29.24,103.29a2.22,2.22,0,1,1,2.21-2.21A2.21,2.21,0,0,1,29.24,103.29Z"/><path class="cls-4" d="M32.62,117a2.23,2.23,0,0,1,1.71-1.68,2.3,2.3,0,0,1,.45,0A2.23,2.23,0,0,1,36.94,117Z"/><path class="cls-4" d="M34.78,108.84a2.3,2.3,0,0,1-.45,0,2.22,2.22,0,0,1,0-4.34,2.3,2.3,0,0,1,.45,0,2.22,2.22,0,0,1,0,4.44Z"/><path class="cls-4" d="M34.78,97.75a2.3,2.3,0,0,1-.45,0,2.22,2.22,0,0,1,0-4.34,2.3,2.3,0,0,1,.45,0,2.22,2.22,0,0,1,0,4.44Z"/><path class="cls-4" d="M40.32,114.38a2.22,2.22,0,1,1,2.22-2.22A2.21,2.21,0,0,1,40.32,114.38Z"/><path class="cls-4" d="M40.32,103.29a2.22,2.22,0,1,1,2.22-2.21A2.21,2.21,0,0,1,40.32,103.29Z"/><path class="cls-4" d="M86.74,90.77a2.3,2.3,0,0,1-.6.87,2.2,2.2,0,0,1-.69.42,2.25,2.25,0,0,1-.78.15A2.17,2.17,0,0,1,83,91.42C84.24,91.17,85.5,91,86.74,90.77Z"/><path class="cls-4" d="M52.66,91.82a2.26,2.26,0,0,1-1.25.39,2.3,2.3,0,0,1-.45,0,2.23,2.23,0,0,1-1.42-1C50.56,91.37,51.61,91.59,52.66,91.82Z"/><path class="cls-4" d="M43.71,117A2.21,2.21,0,0,1,48,117Z"/><path class="cls-4" d="M45.87,108.84a2.22,2.22,0,0,1,0-4.44,2.12,2.12,0,0,1,.44,0,1.91,1.91,0,0,1,.34.1l.08,0a2,2,0,0,1,.32.17l.06,0,.2.17a.58.58,0,0,1,.12.1l.11.12.17.21,0,.05a2.58,2.58,0,0,1,.18.32l0,.09a2.07,2.07,0,0,1,.1.33,2.3,2.3,0,0,1,.05.45A2.23,2.23,0,0,1,45.87,108.84Z"/><path class="cls-4" d="M45.87,97.75a2.22,2.22,0,1,1,2.22-2.22A2.21,2.21,0,0,1,45.87,97.75Z"/><path class="cls-4" d="M51.41,114.38a2.28,2.28,0,0,1-.45,0A2.22,2.22,0,0,1,51,110a2.28,2.28,0,0,1,.45,0,2.22,2.22,0,1,1,0,4.43Z"/><path class="cls-4" d="M51.41,103.29a2.22,2.22,0,1,1,2.22-2.21A2.21,2.21,0,0,1,51.41,103.29Z"/><path class="cls-4" d="M54.8,117a2.21,2.21,0,0,1,1.71-1.68,2.12,2.12,0,0,1,.44,0A2.21,2.21,0,0,1,59.11,117Z"/><path class="cls-4" d="M57,108.84a2.12,2.12,0,0,1-.44,0,2.22,2.22,0,0,1,0-4.34,2.12,2.12,0,0,1,.44,0,2.22,2.22,0,0,1,0,4.44Z"/><path class="cls-4" d="M57,97.75a2.12,2.12,0,0,1-.44,0,2.22,2.22,0,0,1,0-4.34,2.12,2.12,0,0,1,.44,0,2.22,2.22,0,1,1,0,4.44Z"/><path class="cls-4" d="M62.5,114.38a2.22,2.22,0,1,1,2.22-2.22A2.21,2.21,0,0,1,62.5,114.38Z"/><path class="cls-4" d="M62.5,103.29a2.22,2.22,0,1,1,2.22-2.21A2.21,2.21,0,0,1,62.5,103.29Z"/><path class="cls-4" d="M65.88,117a2.21,2.21,0,0,1,4.32,0Z"/><path class="cls-4" d="M68,108.84a2.22,2.22,0,0,1,0-4.44,2.14,2.14,0,0,1,.45,0,1.8,1.8,0,0,1,.33.1l.09,0a2,2,0,0,1,.32.17l0,0a1.73,1.73,0,0,1,.21.17l.12.1.1.12.17.21,0,.05a2.48,2.48,0,0,1,.17.32.32.32,0,0,1,0,.09c0,.11.08.22.11.33a3.42,3.42,0,0,1,0,.45A2.22,2.22,0,0,1,68,108.84Z"/><path class="cls-4" d="M68,97.75a2.22,2.22,0,0,1-2.22-2.22,1.46,1.46,0,0,1,0-.22l1.71.52s1-.37,2.6-.91a2.05,2.05,0,0,1,.1.61A2.21,2.21,0,0,1,68,97.75Z"/><path class="cls-4" d="M73.59,114.38a2.15,2.15,0,0,1-.45,0,2.22,2.22,0,0,1,0-4.35,2.15,2.15,0,0,1,.45,0,2.22,2.22,0,0,1,0,4.43Z"/><path class="cls-4" d="M75.77,101.46a2.22,2.22,0,0,1-1.46,1.7,2.2,2.2,0,0,1-.63.12h-.09a2.22,2.22,0,1,1,2.19-2.47,2.11,2.11,0,0,1,0,.26A2.43,2.43,0,0,1,75.77,101.46Z"/><path class="cls-4" d="M77,117a2.23,2.23,0,0,1,1.71-1.68,2.3,2.3,0,0,1,.45,0A2.23,2.23,0,0,1,81.29,117Z"/><path class="cls-4" d="M79.13,108.84a2.3,2.3,0,0,1-.45,0,2.22,2.22,0,0,1,0-4.34,2.3,2.3,0,0,1,.45,0,2.22,2.22,0,0,1,0,4.44Z"/><path class="cls-4" d="M81.33,96.05a2.34,2.34,0,0,1-.19.7A2.19,2.19,0,0,1,80,97.88a2.51,2.51,0,0,1-.72.16h-.1a2.28,2.28,0,0,1-.45,0h0a2.22,2.22,0,0,1,0-4.34,2.3,2.3,0,0,1,.45,0,2.22,2.22,0,0,1,2.19,1.9c0,.11,0,.21,0,.32S81.33,96,81.33,96.05Z"/><path class="cls-4" d="M84.67,114.38a2.22,2.22,0,1,1,2.22-2.22A2.21,2.21,0,0,1,84.67,114.38Z"/><path class="cls-4" d="M84.67,103.29a2.22,2.22,0,1,1,2.22-2.21A2.21,2.21,0,0,1,84.67,103.29Z"/><path class="cls-4" d="M88.06,117a2.21,2.21,0,0,1,4.31,0Z"/><path class="cls-4" d="M90.22,108.84a2.22,2.22,0,0,1,0-4.44,2.12,2.12,0,0,1,.44,0,1.91,1.91,0,0,1,.34.1l.08,0a2.06,2.06,0,0,1,.33.17l0,0,.2.17a.58.58,0,0,1,.12.1l.11.12c0,.07.12.14.16.21a.13.13,0,0,1,0,.05,2.58,2.58,0,0,1,.18.32l0,.09a2.07,2.07,0,0,1,.1.33,2.28,2.28,0,0,1,0,.45A2.22,2.22,0,0,1,90.22,108.84Z"/><path class="cls-4" d="M90.22,97.75a2.22,2.22,0,1,1,2.21-2.22A2.21,2.21,0,0,1,90.22,97.75Z"/><path class="cls-4" d="M97.82,90.79a2.21,2.21,0,0,1-2.06,1.42,2.3,2.3,0,0,1-.45,0,2.23,2.23,0,0,1-1.76-2A19.46,19.46,0,0,1,97.82,90.79Z"/><path class="cls-4" d="M95.76,114.38a2.28,2.28,0,0,1-.45,0,2.22,2.22,0,0,1,0-4.35,2.28,2.28,0,0,1,.45,0,2.22,2.22,0,1,1,0,4.43Z"/><path class="cls-4" d="M95.76,103.29A2.22,2.22,0,1,1,98,101.08,2.22,2.22,0,0,1,95.76,103.29Z"/><path class="cls-4" d="M99.15,117a2.21,2.21,0,0,1,1.71-1.68,2.12,2.12,0,0,1,.44,0,2.21,2.21,0,0,1,2.16,1.73Z"/><path class="cls-4" d="M101.3,108.84a2.12,2.12,0,0,1-.44,0,2.22,2.22,0,0,1,0-4.34,2.12,2.12,0,0,1,.44,0,2.22,2.22,0,1,1,0,4.44Z"/><path class="cls-4" d="M101.3,97.75a2.12,2.12,0,0,1-.44,0,2.22,2.22,0,0,1,0-4.34,2.12,2.12,0,0,1,.44,0,2.22,2.22,0,0,1,0,4.44Z"/><path class="cls-4" d="M106.85,114.38a2.22,2.22,0,1,1,2.22-2.22A2.21,2.21,0,0,1,106.85,114.38Z"/><path class="cls-4" d="M106.85,103.29a2.22,2.22,0,1,1,0-4.43,2.17,2.17,0,0,1,1.46.56c.26.46.5.93.73,1.41a1.9,1.9,0,0,1,0,.25A2.22,2.22,0,0,1,106.85,103.29Z"/><path class="cls-4" d="M110.69,105.21a34.69,34.69,0,0,1,.82,3.45,2.24,2.24,0,0,1-1.34-2A2.2,2.2,0,0,1,110.69,105.21Z"/><path class="cls-4" d="M112.28,115.29c0,.57,0,1.14,0,1.71h-2.1A2.22,2.22,0,0,1,112.28,115.29Z"/><path class="cls-7" d="M92,89.33v-.12l-2.25-.11c-4.93-.29-7.87-1-8.74-2.15a24,24,0,0,1-3.8-8.61l.25-.16,0,.23.22-.39a21.46,21.46,0,0,0,2.14-1.54A11.41,11.41,0,0,0,86,76.27a4.14,4.14,0,0,1-3.06-2.73l.26-.3a12,12,0,0,0,7.15-.71c-2.5-.53-3.81-4.16-3.81-4.16a9.11,9.11,0,0,0,9-.32c-2.93,0-3.8-3.63-3.8-3.63,5.43,1.17,7.28-2,7.28-2C93,61.75,93.25,58,93.25,58c6.08,1.49,7.82-2.56,7.82-2.56a4.85,4.85,0,0,1-5.86-3.63c5.1,1.81,7.37-4.16,7.37-4.16-7.15,3.2-7.37-1.28-10.52-12.91C90.37,28.55,84.2,13.57,71,17c-1.49-1.49-5.31-4.15-12.48-2.41C48.83,16.93,42,23.13,38.84,34.76S35.47,50.87,28.31,47.67c0,0,2.27,6,7.38,4.16a4.86,4.86,0,0,1-5.87,3.63s1.74,4,7.82,2.56c0,0,.22,3.73-5.75,4.37,0,0,1.85,3.2,7.28,2,0,0-.88,3.63-3.81,3.63a9.1,9.1,0,0,0,9,.32s-1.3,3.63-3.79,4.16a12,12,0,0,0,7.49.64,4.06,4.06,0,0,1-3.15,3.1,11.39,11.39,0,0,0,6.52.11,24.42,24.42,0,0,0,3.23,2.23c-1.17,6.12-4.5,9.62-10,10.38l-.46.05c-.41,0-.89.06-1.36.09l-.93.05v.13c-15.67-.23-23.06,14-23.22,27.69h94.54C113.19,103.18,107.87,88.77,92,89.33ZM19.91,113.5c.07-.72.18-1.44.3-2.15a2.16,2.16,0,0,1-.3,2.15Zm1.63,3.5a2.21,2.21,0,0,1,4.31,0Zm2.15-8.16a2.22,2.22,0,0,1,0-4.44,2.3,2.3,0,0,1,.45,0,2.07,2.07,0,0,1,.33.1l.09,0a2,2,0,0,1,.32.17l.05,0,.21.17.12.1.1.12.17.21,0,.05a2.58,2.58,0,0,1,.18.32s0,.06,0,.09.08.22.11.33a2.28,2.28,0,0,1,0,.45A2.22,2.22,0,0,1,23.69,108.84ZM42,90h.22a.56.56,0,0,0,.35.08v0a1.64,1.64,0,0,1,0,.22s0,0-.07.67h.07c0-.61,0-.56,0-.5a2.21,2.21,0,0,1-4.32-.1A37.1,37.1,0,0,1,42,90ZM29.24,114.38a2.15,2.15,0,0,1-.45,0,2.22,2.22,0,0,1,0-4.35,2.15,2.15,0,0,1,.45,0,2.22,2.22,0,0,1,0,4.43Zm0-11.09a2.22,2.22,0,1,1,2.21-2.21A2.21,2.21,0,0,1,29.24,103.29ZM32.62,117a2.23,2.23,0,0,1,1.71-1.68,2.3,2.3,0,0,1,.45,0A2.23,2.23,0,0,1,36.94,117Zm2.16-8.16a2.3,2.3,0,0,1-.45,0,2.22,2.22,0,0,1,0-4.34,2.3,2.3,0,0,1,.45,0,2.22,2.22,0,0,1,0,4.44Zm0-11.09a2.3,2.3,0,0,1-.45,0,2.22,2.22,0,0,1,0-4.34,2.3,2.3,0,0,1,.45,0,2.22,2.22,0,0,1,0,4.44Zm5.54,16.63a2.22,2.22,0,1,1,2.22-2.22A2.21,2.21,0,0,1,40.32,114.38Zm0-11.09a2.22,2.22,0,1,1,2.22-2.21A2.21,2.21,0,0,1,40.32,103.29Zm12.07-33.8A43.52,43.52,0,0,1,46.62,58l-.22.11a29.27,29.27,0,0,1,1.34-17.43,10.85,10.85,0,0,0-.24,4.4,22.41,22.41,0,0,1,4.13-9.5,29.15,29.15,0,0,0-1.41,6.94s1.52-5.56,4.56-8.12a44.88,44.88,0,0,0-1.41,7.26s4.14-8.27,8.31-12.15c.3-.27.6-.53.9-.76,0,0-.09.25-.22.65-.69,2.07-3,8.62-4.44,10.24,0,0,5.34-5.76,7.34-10.49,0-.13.12-.27.17-.4s0,.15-.06.4c-.31,2-1.83,11.1-4.73,15.18a44.76,44.76,0,0,0,9.13-14.8c0-.13.1-.25.14-.38.06.13.15.28.25.45A14.69,14.69,0,0,0,74,33.5c4.56,3.53,8.51,7.19,8.83,13a28.36,28.36,0,0,0,.55-3.64,36.12,36.12,0,0,1,.88,5.25l.07.71.59-.4.22-.13A25.72,25.72,0,0,1,83.7,58.91l-.13-.07-.15.47C80.21,69.45,70.64,79,65.57,79h-.21C62.15,78.81,56.72,75,52.39,69.49Zm3,10,.4.21a22.38,22.38,0,0,0,.5-3c.06-.59.1-1.18.12-1.76,3.31,2.94,6.64,4.79,8.92,4.92h.26c2.66,0,6.41-2.33,9.94-6,.07.58.13,1.16.22,1.73.79,5,2.44,9.42,4.63,12.3,1,1.29,3.66,2.06,8.39,2.4-9.69,1.06-21.16,5.36-21.16,5.36S53.31,91.2,44.91,90.24C50.52,89.41,54.09,85.71,55.37,79.49ZM86.74,90.77a2.3,2.3,0,0,1-.6.87,2.2,2.2,0,0,1-.69.42,2.25,2.25,0,0,1-.78.15A2.17,2.17,0,0,1,83,91.42C84.24,91.17,85.5,91,86.74,90.77Zm-34.08,1a2.26,2.26,0,0,1-1.25.39,2.3,2.3,0,0,1-.45,0,2.23,2.23,0,0,1-1.42-1C50.56,91.37,51.61,91.59,52.66,91.82ZM43.71,117A2.21,2.21,0,0,1,48,117Zm2.16-8.16a2.22,2.22,0,0,1,0-4.44,2.12,2.12,0,0,1,.44,0,1.91,1.91,0,0,1,.34.1l.08,0a2,2,0,0,1,.32.17l.06,0,.2.17a.58.58,0,0,1,.12.1l.11.12.17.21,0,.05a2.58,2.58,0,0,1,.18.32l0,.09a2.07,2.07,0,0,1,.1.33,2.3,2.3,0,0,1,.05.45A2.23,2.23,0,0,1,45.87,108.84Zm0-11.09a2.22,2.22,0,1,1,2.22-2.22A2.21,2.21,0,0,1,45.87,97.75Zm5.54,16.63a2.28,2.28,0,0,1-.45,0A2.22,2.22,0,0,1,51,110a2.28,2.28,0,0,1,.45,0,2.22,2.22,0,1,1,0,4.43Zm0-11.09a2.22,2.22,0,1,1,2.22-2.21A2.21,2.21,0,0,1,51.41,103.29ZM54.8,117a2.21,2.21,0,0,1,1.71-1.68,2.12,2.12,0,0,1,.44,0A2.21,2.21,0,0,1,59.11,117ZM57,108.84a2.12,2.12,0,0,1-.44,0,2.22,2.22,0,0,1,0-4.34,2.12,2.12,0,0,1,.44,0,2.22,2.22,0,0,1,0,4.44Zm0-11.09a2.12,2.12,0,0,1-.44,0,2.22,2.22,0,0,1,0-4.34,2.12,2.12,0,0,1,.44,0,2.22,2.22,0,1,1,0,4.44Zm5.55,16.63a2.22,2.22,0,1,1,2.22-2.22A2.21,2.21,0,0,1,62.5,114.38Zm0-11.09a2.22,2.22,0,1,1,2.22-2.21A2.21,2.21,0,0,1,62.5,103.29ZM65.88,117a2.21,2.21,0,0,1,4.32,0ZM68,108.84a2.22,2.22,0,0,1,0-4.44,2.14,2.14,0,0,1,.45,0,1.8,1.8,0,0,1,.33.1l.09,0a2,2,0,0,1,.32.17l0,0a1.73,1.73,0,0,1,.21.17l.12.1.1.12.17.21,0,.05a2.48,2.48,0,0,1,.17.32.32.32,0,0,1,0,.09c0,.11.08.22.11.33a3.42,3.42,0,0,1,0,.45A2.22,2.22,0,0,1,68,108.84Zm0-11.09a2.22,2.22,0,0,1-2.22-2.22,1.46,1.46,0,0,1,0-.22l1.71.52s1-.37,2.6-.91a2.05,2.05,0,0,1,.1.61A2.21,2.21,0,0,1,68,97.75Zm5.55,16.63a2.15,2.15,0,0,1-.45,0,2.22,2.22,0,0,1,0-4.35,2.15,2.15,0,0,1,.45,0,2.22,2.22,0,0,1,0,4.43Zm2.18-12.92a2.22,2.22,0,0,1-1.46,1.7,2.2,2.2,0,0,1-.63.12h-.09a2.22,2.22,0,1,1,2.19-2.47,2.11,2.11,0,0,1,0,.26A2.43,2.43,0,0,1,75.77,101.46ZM77,117a2.23,2.23,0,0,1,1.71-1.68,2.3,2.3,0,0,1,.45,0A2.23,2.23,0,0,1,81.29,117Zm2.16-8.16a2.3,2.3,0,0,1-.45,0,2.22,2.22,0,0,1,0-4.34,2.3,2.3,0,0,1,.45,0,2.22,2.22,0,0,1,0,4.44Zm2.2-12.79a2.34,2.34,0,0,1-.19.7A2.19,2.19,0,0,1,80,97.88a2.51,2.51,0,0,1-.72.16h-.1a2.28,2.28,0,0,1-.45,0h0a2.22,2.22,0,0,1,0-4.34,2.3,2.3,0,0,1,.45,0,2.22,2.22,0,0,1,2.19,1.9c0,.11,0,.21,0,.32S81.33,96,81.33,96.05Zm3.34,18.33a2.22,2.22,0,1,1,2.22-2.22A2.21,2.21,0,0,1,84.67,114.38Zm0-11.09a2.22,2.22,0,1,1,2.22-2.21A2.21,2.21,0,0,1,84.67,103.29ZM88.06,117a2.21,2.21,0,0,1,4.31,0Zm2.16-8.16a2.22,2.22,0,0,1,0-4.44,2.12,2.12,0,0,1,.44,0,1.91,1.91,0,0,1,.34.1l.08,0a2.06,2.06,0,0,1,.33.17l0,0,.2.17a.58.58,0,0,1,.12.1l.11.12c0,.07.12.14.16.21a.13.13,0,0,1,0,.05,2.58,2.58,0,0,1,.18.32l0,.09a2.07,2.07,0,0,1,.1.33,2.28,2.28,0,0,1,0,.45A2.22,2.22,0,0,1,90.22,108.84Zm0-11.09a2.22,2.22,0,1,1,2.21-2.22A2.21,2.21,0,0,1,90.22,97.75Zm7.6-7a2.21,2.21,0,0,1-2.06,1.42,2.3,2.3,0,0,1-.45,0,2.23,2.23,0,0,1-1.76-2A19.46,19.46,0,0,1,97.82,90.79Zm-2.06,23.59a2.28,2.28,0,0,1-.45,0,2.22,2.22,0,0,1,0-4.35,2.28,2.28,0,0,1,.45,0,2.22,2.22,0,1,1,0,4.43Zm0-11.09A2.22,2.22,0,1,1,98,101.08,2.22,2.22,0,0,1,95.76,103.29ZM99.15,117a2.21,2.21,0,0,1,1.71-1.68,2.12,2.12,0,0,1,.44,0,2.21,2.21,0,0,1,2.16,1.73Zm2.15-8.16a2.12,2.12,0,0,1-.44,0,2.22,2.22,0,0,1,0-4.34,2.12,2.12,0,0,1,.44,0,2.22,2.22,0,1,1,0,4.44Zm0-11.09a2.12,2.12,0,0,1-.44,0,2.22,2.22,0,0,1,0-4.34,2.12,2.12,0,0,1,.44,0,2.22,2.22,0,0,1,0,4.44Zm5.55,16.63a2.22,2.22,0,1,1,2.22-2.22A2.21,2.21,0,0,1,106.85,114.38Zm0-11.09a2.22,2.22,0,1,1,0-4.43,2.17,2.17,0,0,1,1.46.56c.26.46.5.93.73,1.41a1.9,1.9,0,0,1,0,.25A2.22,2.22,0,0,1,106.85,103.29Zm3.84,1.92a34.69,34.69,0,0,1,.82,3.45,2.24,2.24,0,0,1-1.34-2A2.2,2.2,0,0,1,110.69,105.21Zm1.59,10.08c0,.57,0,1.14,0,1.71h-2.1A2.22,2.22,0,0,1,112.28,115.29Z"/></g></g></g></g></svg>