<svg xmlns="http://www.w3.org/2000/svg" xmlns:xlink="http://www.w3.org/1999/xlink" viewBox="0 0 135 136"><defs><style>.cls-1{fill:none;}.cls-2{isolation:isolate;}.cls-3{clip-path:url(#clip-path);}.cls-4{fill:#191114;opacity:0.5;}.cls-5{fill:#85cfb4;}.cls-6{fill:#e6e6e6;mix-blend-mode:multiply;}.cls-7{fill:#43685a;}.cls-8{fill:#f6f3e5;}</style><clipPath id="clip-path"><rect class="cls-1" x="3.77" y="6.36" width="122.5" height="122.5" rx="61.25" ry="61.25"/></clipPath></defs><title>Asset 3</title><g class="cls-2"><g id="Layer_2" data-name="Layer 2"><g id="avatars"><g class="cls-3"><rect class="cls-4" x="3" y="4" width="132" height="132" rx="10" ry="10"/><rect class="cls-5" width="132" height="132" rx="10" ry="10"/><path class="cls-6" d="M131.29,67.4c.25.22.49.43.71.64v54a10,10,0,0,1-10,10H29v-1H28v-1H27v-2H25v-1H23v-2H22v-2H21v-1H19v-1H17v-2H16v-1H15v-2c0-6.76,1.7-12.52,5.17-17.09h0c.09-.12.19-.24.28-.37A25.2,25.2,0,0,1,23,95.88h0c.48-.44,1-.86,1.51-1.27l.11-.08c.51-.4,1.05-.79,1.6-1.16,0,0,0,0,0,0A29.37,29.37,0,0,1,30,91.25v-.5s1.43-.73,2.31-1.06l.17-.06s-.48,0-.48,0v0a47.33,47.33,0,0,1,8-2.09v.23c.7-.12,1.4-.24,2.13-.34a4.26,4.26,0,0,1,1-.35,10,10,0,0,0,6.59-4.37,20.87,20.87,0,0,0,3-7.07c-3.23-3.1-6-7.56-8.26-13.32A6.42,6.42,0,0,1,43.2,61a6,6,0,0,1-1.48-1.49A6,6,0,0,1,40.23,58c-1.89-1.24-3-4.37-3.2-4.8-1-2.94-1-5.82-.49-7.15a4.15,4.15,0,0,1,1.66-2.22c-.34-3-.06-6.38,1.79-8.43a14,14,0,0,0-2.72,4.27A20.08,20.08,0,0,1,40,31.8a9.11,9.11,0,0,0-2.32,2.48,11.17,11.17,0,0,1,3.6-6.57,8.64,8.64,0,0,0-3.73,1.71c.93-1.29,6.06-7,8.44-6.44a7.86,7.86,0,0,0-4,.36c2-1.67,4.61-2.48,7.12-3.26a12.44,12.44,0,0,0-3.65,0c2.17-1,4.11-1.7,6.6-1.28h0a11.12,11.12,0,0,0-3.37-1,10.11,10.11,0,0,1,6.17-.25,13.54,13.54,0,0,0-2.36-1.26c1.87.07,4.15.4,5.11,1.92a5,5,0,0,1,1.48-3.87c.09.31.59,1.31,1,2.14a6.73,6.73,0,0,1,.52-.65,7.11,7.11,0,0,0,.33.77,5.34,5.34,0,0,1,1.54-2.2,8.4,8.4,0,0,0,.07,3.16,4,4,0,0,1,.59-.78,4.42,4.42,0,0,1,.83-.9c0,.07,0,.13,0,.2A15.87,15.87,0,0,1,67,14.43a4.89,4.89,0,0,0-1.63,2.91A9.38,9.38,0,0,1,70.5,15a27.51,27.51,0,0,0-2.58,2.23,12.3,12.3,0,0,1,6.5-1.36c-.87.32-1.75.63-2.63.89,2.26.18,4.93-.57,7.34-.11a20.14,20.14,0,0,0-4.19,1.23c2.47-.09,5.28-.34,7.53.8a19.38,19.38,0,0,1-3.73.53,4.74,4.74,0,0,1,1.48.09,9.39,9.39,0,0,1,3.73.86,6.45,6.45,0,0,1-.89.23c.52.27,1,.58,1.52.9a6.5,6.5,0,0,1,.86.36l-.24.06a16.93,16.93,0,0,1,3.09,2.67h-.07a11.88,11.88,0,0,1,1.55,1.5l-.06,0a13.33,13.33,0,0,1,1.55,1.5h-.07a11.88,11.88,0,0,1,1.55,1.5l-.06,0a13.33,13.33,0,0,1,1.55,1.5h-.07a11.88,11.88,0,0,1,1.55,1.5l-.06,0a13.33,13.33,0,0,1,1.55,1.5h-.07a11.88,11.88,0,0,1,1.55,1.5l-.06,0a13.33,13.33,0,0,1,1.55,1.5h-.07a11.88,11.88,0,0,1,1.55,1.5l-.06,0a13.33,13.33,0,0,1,1.55,1.5h-.07a12.59,12.59,0,0,1,1.55,1.49h-.06a13.33,13.33,0,0,1,1.55,1.5H106a11.88,11.88,0,0,1,1.55,1.5l-.06,0a13.33,13.33,0,0,1,1.55,1.5H109a12.59,12.59,0,0,1,1.55,1.49h-.06a14.19,14.19,0,0,1,1.55,1.5H112a12.59,12.59,0,0,1,1.55,1.49h-.06a13.33,13.33,0,0,1,1.55,1.5H115a12.59,12.59,0,0,1,1.55,1.49h-.06a14.19,14.19,0,0,1,1.55,1.5h-.07a12.59,12.59,0,0,1,1.55,1.49h-.06A13.13,13.13,0,0,1,121,57h-.06a12.59,12.59,0,0,1,1.55,1.49h-.07a12.57,12.57,0,0,1,1.55,1.5h-.06a12.59,12.59,0,0,1,1.55,1.49h-.06a13.13,13.13,0,0,1,1.54,1.5h-.06a12.59,12.59,0,0,1,1.55,1.49h-.06a13.13,13.13,0,0,1,1.54,1.5h-.06a12.59,12.59,0,0,1,1.55,1.49Z"/><path class="cls-5" d="M110.39,93.74l-.15-.17-.63-.62-.15-.13a20.1,20.1,0,0,0-3.29-2.45l-.17-.1c-.28-.17-.57-.32-.86-.48l-.21-.11c-.3-.15-.61-.31-.93-.45h0V117h7V94.41h0C110.8,94.18,110.6,94,110.39,93.74Z"/><path class="cls-5" d="M113.94,98.57H114V117h1V99.13C114.14,98.94,114,98.76,113.94,98.57Z"/><path class="cls-5" d="M101,88.62V117h1V88.72h-.19A3.32,3.32,0,0,0,101,88.62Z"/><path class="cls-5" d="M65.93,100.41A10,10,0,0,1,64,100.2V117h7V99.74a23.22,23.22,0,0,1-5,.67Z"/><path class="cls-5" d="M43,114.83V117h7V94.61c-2.71-1.51-5.19-3-7-4.23Z"/><path class="cls-5" d="M84,114.83h0V117h7V90.61c-1.93,1.21-4.35,2.61-7,4Z"/><path class="cls-5" d="M74,117H73V99.46a7.2,7.2,0,0,0,1,.09Z"/><path class="cls-5" d="M53,117H52V96.6a2.34,2.34,0,0,0,1-.15Z"/><path class="cls-5" d="M93,87v.15l1,0V87c-.28,0-.37,0-1,0Z"/><path class="cls-5" d="M94,117H93V89.27a4,4,0,0,1,1,.2Z"/><path class="cls-5" d="M40,88h.49s.07,0-.49,0v-.49c.49,0,.39,0,0,0Z"/><path class="cls-5" d="M40,117h0V89.18c.47-.09.37-.16,0-.22Z"/><path class="cls-5" d="M61,117H60V100a3.55,3.55,0,0,0,1-.1Z"/><path class="cls-5" d="M82,117H81V96.3a4.26,4.26,0,0,0,1,.14Z"/><path class="cls-5" d="M26.21,92.37c-.56.37-1.09.76-1.6,1.16l-.11.08c-.52.41-1,.83-1.5,1.27h0V117h7V90.25a29.78,29.78,0,0,0-3.78,2.11A0,0,0,0,1,26.21,92.37Z"/><path class="cls-5" d="M32,89.69V117h0V89.59c.56,0,.52,0,.48,0A1.58,1.58,0,0,1,32,89.69Z"/><path class="cls-5" d="M20,98.43V117h1v-19c-.92.13-1,.25-1.11.38Z"/><path class="cls-7" d="M20,98.05v19h3V95.38A20.07,20.07,0,0,0,20,98.05Z"/><path class="cls-7" d="M32.88,89.63l.12,0h0Z"/><path class="cls-7" d="M40,87.52c.49,0,.39,0,0,0h0c.39,0,.49,0,0,0Z"/><path class="cls-7" d="M29.68,90.9l.32-.15h0Z"/><path class="cls-7" d="M30,115.32V117h3V89.69a9,9,0,0,0-3,1.06Z"/><path class="cls-7" d="M15,117h5V97.94c-3.36,4.57-5,10.33-5,17.09Z"/><path class="cls-7" d="M102,117h3V89.72a17.34,17.34,0,0,1-3-1Z"/><path class="cls-7" d="M111,115.32V117h3V98.56a12.51,12.51,0,0,0-3-3.66Z"/><path class="cls-7" d="M114,98.69V117h3v-2C117,108.81,116.19,103.24,114,98.69Z"/><path class="cls-7" d="M113.71,98.57c.1.2.19.41.29.61v-.05C113.91,98.94,113.81,98.76,113.71,98.57Z"/><path class="cls-7" d="M96.15,87.33H96c-.71-.12-3-.29-3-.29v.15l1,0v.57l-1.7-.15c-3.31-.71-7-2.18-8.1-3.68a35,35,0,0,1-5-10,48.37,48.37,0,0,0,7.88-15.46l.32.1a2.29,2.29,0,0,0,.64.08c2.84,0,4.63-4.84,4.83-5.4,1-3,1-5.89.49-7.23a4.42,4.42,0,0,0-1.44-2.1c.92-3,2.12-8-.16-10.36.35.34.67.71,1.06,1a13,13,0,0,0-3.6-6C90.3,29,91,29.78,92,30.2c.07-3-3.74-5.62-6.38-7.2a17.81,17.81,0,0,0,3.32,1c-1.54-1.85-6.63-5.63-9.67-5.24A19,19,0,0,0,83,18.21c-2.28-1.15-5.13-.9-7.63-.81a20.72,20.72,0,0,1,4.25-1.25c-2.44-.46-5.15.3-7.44.12.89-.26,1.78-.59,2.67-.91a12.58,12.58,0,0,0-6.6,1.38,26.78,26.78,0,0,1,2.62-2.25,9.52,9.52,0,0,0-5.23,2.39,4.93,4.93,0,0,1,1.66-2.95c-1.78.75-3.69,1.6-4.54,3.11a8.46,8.46,0,0,1-.06-3.21,7,7,0,0,0-2,3.33c.11-.31-1.25-2.85-1.4-3.38a5.05,5.05,0,0,0-1.5,3.91c-1-1.53-3.29-1.87-5.18-1.94A13.87,13.87,0,0,1,55.05,17a10.22,10.22,0,0,0-6.25.26,11.3,11.3,0,0,1,3.44,1.06c-2.55-.45-4.52.28-6.74,1.3a11.87,11.87,0,0,1,3.71,0C46.66,20.45,44,21.27,42,23a8,8,0,0,1,4.09-.37c-2.41-.59-7.61,5.22-8.55,6.53a8.71,8.71,0,0,1,3.78-1.74,11.31,11.31,0,0,0-3.65,6.66A9.18,9.18,0,0,1,40,31.54a20.43,20.43,0,0,0-2.78,8A14.17,14.17,0,0,1,40,35.18c-1.87,2.07-2.16,5.47-1.81,8.54A4.21,4.21,0,0,0,36.49,46c-.5,1.34-.48,4.26.5,7.24.2.55,2,5.39,4.83,5.39a2.29,2.29,0,0,0,.64-.08,6.21,6.21,0,0,0,.61-.2Q46.88,70.19,52.94,76a21.42,21.42,0,0,1-3.07,7.16,10.13,10.13,0,0,1-6.68,4.43,4.48,4.48,0,0,0-1,.35c-.74.1-1.45.22-2.16.34V88l.49,0H40v-1a48.43,48.43,0,0,0-8,2V117h8V89c.37.06.47.13,0,.22V117h3V90.38c1.81,1.18,4.29,2.72,7,4.23V117h2V96.45c.81,0,.91.1,1,.15V117h7V99.94a3.55,3.55,0,0,1,1,.1v17h3V100.2a10,10,0,0,0,1.93.21h0a23.22,23.22,0,0,0,5-.67V117h2V99.55a7.2,7.2,0,0,1,1-.09V117h7V96.44a4.26,4.26,0,0,1,1-.14V117h2v-2.17h0V94.58c2.66-1.36,5.07-2.76,7-4V117h2V89.47a5,5,0,0,0,1-.2L93,117h9V88.62c-.39,0-.29.07-.19.1a34.64,34.64,0,0,0-5.67-1.37Z"/><path class="cls-8" d="M44.16,56.75l-.53.33a3,3,0,0,1-.87.37c-1.92.5-3.72-3.22-4.21-4.59a11.69,11.69,0,0,1-.49-6.45A3.7,3.7,0,0,1,39,45a21.53,21.53,0,0,0,.69,2.91c1.36,4.28,4.07,8.19,6.66,12-2.18-4.37-3-9.69-3.17-15.06v0l0-.29-.06,0c0-2.13,0-4.27.13-6.36,0,2,1.09,3.91,1.85,5.78-1-2-.69-4.47-.92-6.64a17.19,17.19,0,0,0,1.94,4.61c-2.18-4.24.92-10.11,4-14.31a14.59,14.59,0,0,1,1.31-.67c-.25.92-.39,1.88-.61,2.82a16.68,16.68,0,0,1,3.58-3.32c0,.37.09.79,0,1.17a4,4,0,0,1,1.79-2c0,.56.56,1,.75,1.36.75-1.37,1.86-1.48,2.56-.12.19-.56.69-.95.94-1.46A11.09,11.09,0,0,1,61,26.41a11.06,11.06,0,0,1,.64-1.09c.17.29.57.56.71,1,.08-.36.41-.71.49-1.09.26.33.92.65,1.19,1,0-.27,0-.53,0-.8A20.19,20.19,0,0,0,65.61,27c-.06-.37.07-.8,0-1.19A8.12,8.12,0,0,0,67,27.07c-.08-.5.13-1.1.06-1.59.72.64,1.49,1.32,2.2,2A9.87,9.87,0,0,1,69.13,25h0a20.48,20.48,0,0,0,2.17,2.49,9.76,9.76,0,0,1-.06-1.62,8.25,8.25,0,0,1,2.33,1.75,8,8,0,0,1-.52-1.74c1,.78,1.45,2.05,2.68,2.62a7.37,7.37,0,0,1-.39-2l.42.17a17,17,0,0,0,1.62,2.1A3.64,3.64,0,0,1,77,27.17l.1,0a10.29,10.29,0,0,0,.6,1.63c0-.45-.08-.9-.1-1.37l.42.25c.6.8,1.67,1.58,2.13,2.18a10.79,10.79,0,0,1,1.52,3.2c1,2.81,2.58,6,.89,8.88.68-1.14,2.13-2.51,2.42-3.52.09,1.36.3,2.69.31,4.09a11.38,11.38,0,0,1,.87-2.27c.23,3.8,1.8,7.27.9,11-.58,2.37-1.47,4.9-2,6.91,3.81-4.17,4.44-7.87,6.09-12.92l.09-.27A3.72,3.72,0,0,1,92,46.41a11.69,11.69,0,0,1-.5,6.44c-.48,1.38-2.28,5.09-4.2,4.6a4.16,4.16,0,0,1-.64-.24l-.5-.24L86,57.5a48.26,48.26,0,0,1-7.31,14.83l-.38.46-.36.44c-3.59,4.28-7.7,6.65-12,6.65h-.49a17.15,17.15,0,0,1-11.13-4.71c-.13-.12-.26-.26-.39-.39s-.28-.26-.41-.4q-5.6-5.64-9.18-17Z"/><path class="cls-8" d="M63,99.71A23.46,23.46,0,0,1,60.53,99l-.3-.1a61,61,0,0,1-7.69-3.42l-.29-.16c-.85-.44-1.7-.9-2.52-1.36-2.81-1.57-5.35-3.13-7.09-4.27-.59-.38-1.09-.71-1.47-1,.33-.13.68-.29,1-.44l.45-.21a3.78,3.78,0,0,1,.77-.27,10.25,10.25,0,0,0,3.09-1h0a11.72,11.72,0,0,0,4.09-3.7,21.72,21.72,0,0,0,3-6.83,18,18,0,0,0,11.34,4.59h.53c4.43,0,8.65-2.32,12.34-6.55a35.05,35.05,0,0,0,4.87,9.55,11.16,11.16,0,0,0,4.75,2.86h0a28.67,28.67,0,0,0,3.12.94,24,24,0,0,0,2.51.49l.18,0-.18.13c-.64.46-1.49,1-2.51,1.67-1.9,1.18-4.37,2.61-7.1,4-.82.42-1.66.83-2.51,1.24l-.3.14A67.46,67.46,0,0,1,73,98.43l-.3.09c-.85.27-1.68.5-2.51.7a22.53,22.53,0,0,1-5.1.71l0,.49v-.49A10.31,10.31,0,0,1,63,99.71Z"/><path class="cls-7" d="M91,41.79l-1.18-1.33-7.3,6.47.06.07H66.89c-.08.22-.15.43-.21.66a4.17,4.17,0,0,0-3.67,0c-.07-.23-.14-.45-.22-.67H47.62l.08-.1L40.36,41l-1.12,1.39,7.06,5.65a7.85,7.85,0,0,0-.2,1.76,8.61,8.61,0,0,0,17.2,0c0-.22,0-.44,0-.65a2.68,2.68,0,0,1,1.59-.46,2.75,2.75,0,0,1,1.55.43c0,.23,0,.45,0,.68a8.61,8.61,0,0,0,17.21,0,8.14,8.14,0,0,0-.24-1.92l.32.36Z"/></g></g></g></g></svg>