<?xml version="1.0" encoding="utf-8"?>
<!-- Generator: Adobe Illustrator 22.1.0, SVG Export Plug-In . SVG Version: 6.00 Build 0)  -->
<svg version="1.1" id="Layer_1" xmlns="http://www.w3.org/2000/svg" xmlns:xlink="http://www.w3.org/1999/xlink" x="0px" y="0px"
	 viewBox="0 0 48 48" style="enable-background:new 0 0 48 48;" xml:space="preserve">
<style type="text/css">
	.st0{fill:#FF0022;enable-background:new    ;}
	.st1{fill:#41EAD4;}
</style>
<circle class="st0" cx="24" cy="24" r="23"/>
<path class="st1" d="M34,23h-9v-9c0-0.6-0.4-1-1-1s-1,0.4-1,1v9h-9c-0.6,0-1,0.4-1,1s0.4,1,1,1h9v9c0,0.6,0.4,1,1,1s1-0.4,1-1v-9h9
	c0.6,0,1-0.4,1-1S34.6,23,34,23z"/>
<path class="st1" d="M24,45C12.4,45,3,35.6,3,24S12.4,3,24,3s21,9.4,21,21S35.6,45,24,45z M24,1C11.3,1,1,11.3,1,24s10.3,23,23,23
	s23-10.3,23-23S36.7,1,24,1z"/>
</svg>
