<?xml version="1.0" encoding="utf-8"?>
<!-- Generator: Adobe Illustrator 22.1.0, SVG Export Plug-In . SVG Version: 6.00 Build 0)  -->
<svg version="1.1" id="Layer_1" xmlns="http://www.w3.org/2000/svg" xmlns:xlink="http://www.w3.org/1999/xlink" x="0px" y="0px"
	 viewBox="0 0 48 48" style="enable-background:new 0 0 48 48;" xml:space="preserve">
<style type="text/css">
	.st0{fill:#41EAD4;}
</style>
<path class="st0" d="M37.3,16.4L20.6,33.1c-0.2,0.2-0.4,0.3-0.7,0.3c-0.3,0-0.5-0.1-0.7-0.3l-8.3-8.3c-0.4-0.4-0.4-1,0-1.5
	c0.4-0.4,1-0.4,1.5,0l7.6,7.6l16-16c0.4-0.4,1-0.4,1.5,0C37.7,15.3,37.7,16,37.3,16.4z M24,0C10.7,0,0,10.7,0,24s10.7,24,24,24
	s24-10.7,24-24S37.3,0,24,0z"/>
</svg>
