<?xml version="1.0" encoding="utf-8"?>
<!-- Generator: Adobe Illustrator 22.1.0, SVG Export Plug-In . SVG Version: 6.00 Build 0)  -->
<svg version="1.1" id="Layer_1" xmlns="http://www.w3.org/2000/svg" xmlns:xlink="http://www.w3.org/1999/xlink" x="0px" y="0px"
	 viewBox="0 0 48 48" style="enable-background:new 0 0 48 48;" xml:space="preserve">
<style type="text/css">
	.st0{fill:#41EAD4;}
</style>
<g>
	<path class="st0" d="M35.8,14.9l-16,16l-7.6-7.6c-0.4-0.4-1-0.4-1.5,0c-0.4,0.4-0.4,1,0,1.5l8.3,8.3c0.2,0.2,0.5,0.3,0.7,0.3
		c0.2,0,0.5-0.1,0.7-0.3l16.7-16.7c0.4-0.4,0.4-1,0-1.5C36.8,14.5,36.2,14.5,35.8,14.9z"/>
	<path class="st0" d="M24,45.9C11.9,45.9,2.1,36.1,2.1,24S11.9,2.1,24,2.1S45.9,11.9,45.9,24S36.1,45.9,24,45.9z M24,0
		C10.7,0,0,10.7,0,24s10.7,24,24,24s24-10.7,24-24S37.3,0,24,0z"/>
</g>
</svg>
