<?xml version="1.0" encoding="utf-8"?>
<!-- Generator: Adobe Illustrator 22.1.0, SVG Export Plug-In . SVG Version: 6.00 Build 0)  -->
<svg version="1.1" id="Layer_1" xmlns="http://www.w3.org/2000/svg" xmlns:xlink="http://www.w3.org/1999/xlink" x="0px" y="0px"
	 viewBox="0 0 48 48" style="enable-background:new 0 0 48 48;" xml:space="preserve">
<style type="text/css">
	.st0{fill:#FF0022;}
</style>
<path class="st0" d="M17.7,34.2c-0.4,0.4-1,0.4-1.4,0l-2.6-2.6c-0.4-0.4-0.4-1,0-1.4l6.3-6.3l-6.3-6.3c-0.4-0.4-0.4-1,0-1.4l2.6-2.6
	c0.4-0.4,1-0.4,1.4,0l6.3,6.3l6.3-6.3c0.4-0.4,1-0.4,1.4,0l2.6,2.6c0.4,0.4,0.4,1,0,1.4L28,23.9l6.3,6.3c0.4,0.4,0.4,1,0,1.4
	l-2.6,2.6c-0.4,0.4-1,0.4-1.4,0L24,27.9C24,27.9,17.7,34.2,17.7,34.2z M47,24C47,11.2,36.8,1,24,1c-12.7,0-23,10.3-23,23
	s10.3,23,23,23S47,36.6,47,24z"/>
</svg>
