<?xml version="1.0" encoding="utf-8"?>
<!-- Generator: Adobe Illustrator 22.1.0, SVG Export Plug-In . SVG Version: 6.00 Build 0)  -->
<svg version="1.1" id="Layer_1" xmlns="http://www.w3.org/2000/svg" xmlns:xlink="http://www.w3.org/1999/xlink" x="0px" y="0px"
	 viewBox="0 0 271 76" style="enable-background:new 0 0 271 76;" xml:space="preserve">
<style type="text/css">
	.st0{fill:#B91372;}
	.st1{fill:#011627;}
	.st2{fill:#41EAD4;}
	.st3{fill:#FF0022;}
</style>
<g>
	<path class="st0" d="M0.5,17.3c-1.4-10.4,8.9-17,21.9-17c10.2,0,16.9,4.6,18.2,5.9l-1.9,9.6c-1.5-2-8.5-5.8-16.1-5.8
		c-6.2,0-10.7,2.2-10.2,5.7L14,30.1C7.1,28.1,1.6,24.6,0.5,17.3z"/>
	<path d="M4.9,49.5L5.1,38c2.3,2.4,9.3,6.1,17.1,6.9L23,55C13.2,54.5,7.3,51.2,4.9,49.5z"/>
	<path class="st1" d="M36.7,39.1c-0.3-2.3-2.9-4.2-6.6-5.3l-1-11.1c11.5,2.5,17.8,5.6,18.9,14c1.3,8.6-2.3,14.2-9.7,16.7L36.7,39.1z
		"/>
	<path class="st2" d="M59.7,36.2L54.8,1.6h11.9l4.8,33.9c0.7,5.3,4.4,8.3,8.3,9.1l0.9,10.6C70.6,55,61.5,49.7,59.7,36.2z"/>
	<path d="M95.6,48.2L89,1.6h12l5.5,38.7c0.7,4.7,1.8,8.6,3.4,10.9l-10,4.2C98.7,54.3,96.4,51.8,95.6,48.2z"/>
	<path d="M115.8,1.6h11.9l1.1,6.1c1.8-4.1,5.5-7.3,12.6-7.3c2.1,0,4.3,0.6,6.1,1.6l-1.8,11.7c-1.2-1.4-3.1-2.8-6-2.8
		c-5,0-8,3.3-9.6,8.3l2,13.8h-11.9L115.8,1.6z"/>
	<path class="st3" d="M165.4,29.9c-2.2-1.6-5.7-5.1-6.5-10.8c-1.4-9.4,5.3-16.4,14.8-18.2l0.8,9.5c-3.4,1.4-5.1,4-4.6,7.4
		c0.6,3.9,3.6,7,7.4,8.4l0.8,9.8c-2.7-0.5-4.9-1.2-6.7-2.1c-0.5,0.3-1,1.6-0.9,2.9c0.6,4.1,7.2,6.1,17.8,5.7
		c13.1-0.6,20.9,3.9,23.9,11.1L198.6,54c-2.6-1.6-7.1-2.8-13.9-2.4c-12.7,0.8-23.3-4.4-24.3-11.7C159.7,34.7,163.3,30.8,165.4,29.9z
		"/>
	<path d="M162.7,55.6l10.9,3.2c0.8,3.1,5.8,6.8,16.3,6.8l22.8-0.3c-2.5,6.8-10.7,10.6-22.2,10.6c-16.7,0-26.5-6.7-27.9-17.2
		C162.4,57.6,162.5,56.5,162.7,55.6z"/>
	<path d="M187.8,26.4c3.6-1.4,5-3.9,4.5-7.2c-0.6-4.1-3.6-7.3-7.4-8.7l-0.8-9.8c4.4,0.7,7.7,2.1,10.6,4.3c1.7-2.3,5-4.6,10.4-4.6
		l0.6,8.6c-2.8,0-4.9,0.6-6,1.9c1.6,1.5,2.9,4.3,3.3,7c1.3,9.2-4.2,16.3-14.6,18.1L187.8,26.4z"/>
	<path class="st0" d="M226.9,4l3.6,27.3c1.5,8.6,10.2,13.5,19,13.5c7.3,0,14-1.5,17.5-4.6l3.7,9.1c-3.9,3.4-11.7,5.9-21.7,5.9
		c-16.9,0-29.2-10.2-31.4-26.3C216,18.2,219.4,8.8,226.9,4z"/>
	<path d="M268.2,24.3c0.3,2.6,0.2,5.7-0.1,7l-20.2,0.3l-1.3-9.1l9.8,0.4c-0.9-6.6-5.7-11.3-11.9-12.6l-0.8-9.9
		C258.4,2,266.5,12.8,268.2,24.3z"/>
</g>
</svg>
