<?xml version="1.0" encoding="utf-8"?>
<!-- Generator: Adobe Illustrator 22.1.0, SVG Export Plug-In . SVG Version: 6.00 Build 0)  -->
<svg version="1.1" id="Layer_1" xmlns="http://www.w3.org/2000/svg" xmlns:xlink="http://www.w3.org/1999/xlink" x="0px" y="0px"
	 viewBox="0 0 271 76" style="enable-background:new 0 0 271 76;" xml:space="preserve">
<style type="text/css">
	.st0{fill:#FF0022;}
	.st1{fill:#FFFFFF;}
	.st2{fill:#B91372;}
	.st3{fill:#41EAD4;}
</style>
<polygon class="st0" points="3,23.3 10.3,23.3 13.8,31.8 11.6,42 "/>
<polygon class="st1" points="23.3,23.3 30,23.3 44.5,54.5 37.6,54.5 27.8,33.2 23.6,54.5 17.6,54.5 "/>
<polygon class="st0" points="41.9,31.1 43,23.3 50.1,23.3 46.7,41.9 "/>
<path class="st2" d="M52.8,9.5l7.1-0.4l2.7,18.6c1.3-2.2,4.4-5.1,9.5-5.1c6.7,0,11,4.5,12,12.2l1,7.3h-7l-1-6.8
	c-0.4-3.1-2.7-5.8-6.4-5.8c-3.5,0-6.1,2.1-7.3,5.2l2.9,19.9h-7.1L52.8,9.5z"/>
<path class="st1" d="M89.9,39.3c-1-7.5,3.1-14.2,10.4-16.1l0.6,6.5c-3.2,1.7-4.6,5.1-4,8.9c0.6,4.3,3.3,7.9,7,9.5l0.6,6.8
	C96.4,53,91,46.8,89.9,39.3z"/>
<path class="st3" d="M113.2,48.2c3.3-1.6,4.6-5,4-8.9c-0.6-4.1-3.3-7.8-7-9.5l-0.6-6.8c8,2,13.6,8.2,14.6,15.4
	c1.1,7.8-2.9,14.5-10.5,16.3L113.2,48.2z"/>
<path class="st1" d="M129,39.3c-1-7.5,3.1-14.2,10.4-16.1l0.6,6.5c-3.2,1.7-4.6,5.1-4,8.9c0.6,4.3,3.3,7.9,7,9.5l0.6,6.8
	C135.4,53,130.1,46.8,129,39.3z"/>
<path class="st3" d="M152.3,48.2c3.3-1.6,4.6-5,4-8.9c-0.6-4.1-3.3-7.8-7-9.5l-0.6-6.8c8,2,13.6,8.2,14.6,15.4
	c1.1,7.8-2.9,14.5-10.5,16.3L152.3,48.2z"/>
<path class="st1" d="M167.6,23.3h7.1l0.7,4.6c1.5-2.6,4.8-5.4,9.6-5.4c9.2,0,15.2,6.9,16.4,15.5c1.4,9.9-4,17.1-13,17.2l-0.5-6
	c5.6-0.6,7.1-5.8,6.6-10.3c-0.9-6.3-5-10.5-10.8-10.5c-4.3,0-6.8,3.3-7.5,5.8l4.7,32.7h-7.1L167.6,23.3z"/>
<path class="st2" d="M205.8,32.7c-0.9-6.2,5.3-10.1,13.1-10.1c6.1,0,10.1,2.8,10.8,3.5l-1.2,5.7c-0.9-1.2-5.1-3.5-9.6-3.5
	c-3.7,0-6.4,1.3-6.1,3.4l1,8.6C209.7,39.1,206.5,37,205.8,32.7z"/>
<path class="st1" d="M208.4,51.9l0.2-6.9c1.4,1.4,5.5,3.6,10.2,4.1l0.5,6.1C213.4,54.9,209.9,52.9,208.4,51.9z"/>
<path class="st1" d="M227.4,45.7c-0.2-1.4-1.7-2.5-3.9-3.2l-0.6-6.6c6.9,1.5,10.6,3.3,11.3,8.4c0.7,5.1-1.4,8.5-5.8,10L227.4,45.7z"
	/>
<polygon class="st0" points="262,10.6 265,36.1 258.5,36.1 254.6,11 "/>
<path class="st3" d="M260.8,48.3l5.6-0.2c0.9,0.7,1.4,1.8,1.5,2.7c0.3,2.3-1,4.5-3.8,4.5c-2.5,0-4.1-1.7-4.4-3.7
	C259.5,50.3,260,49.2,260.8,48.3z"/>
</svg>
